<svg width="128" height="107" viewBox="0 0 128 107" fill="none" xmlns="http://www.w3.org/2000/svg">
<path d="M120.426 88.311H70.1936C66.8007 88.311 64.0342 85.5618 64.0342 82.1515V11.6311C64.0342 8.23821 66.7833 5.47168 70.1936 5.47168H120.426C123.819 5.47168 126.586 8.22081 126.586 11.6311V82.1515C126.586 85.5444 123.836 88.311 120.426 88.311Z" fill="white" stroke="#27567C" stroke-width="1.2059" stroke-miterlimit="10" stroke-linecap="round" stroke-linejoin="round"/>
<path d="M57.892 88.311H7.65944C4.26653 88.311 1.5 85.5618 1.5 82.1515V11.6311C1.5 8.23821 4.24913 5.47168 7.65944 5.47168H57.892C61.2849 5.47168 64.0514 8.22081 64.0514 11.6311V82.1515C64.0514 85.5444 61.2849 88.311 57.892 88.311Z" fill="white" stroke="#27567C" stroke-width="1.2059" stroke-miterlimit="10" stroke-linecap="round" stroke-linejoin="round"/>
<path d="M126.586 68.3015V12.0139C126.586 8.3948 123.645 5.47168 120.044 5.47168H70.594C66.9749 5.47168 64.0518 8.4122 64.0518 12.0139V23.3758C92.7958 24.1762 117.138 42.6197 126.586 68.3015Z" fill="#E6E6E6"/>
<path d="M120.043 1C121.557 1 123.001 1.31319 124.323 1.86998" stroke="#27567C" stroke-width="1.2059" stroke-miterlimit="10" stroke-linecap="round" stroke-linejoin="round"/>
<path d="M95.3184 1H107.672" stroke="#27567C" stroke-width="1.2059" stroke-miterlimit="10" stroke-linecap="round" stroke-linejoin="round"/>
<path d="M58.4658 16.9207H69.6363" stroke="#27567C" stroke-width="1.2059" stroke-miterlimit="10" stroke-linecap="round" stroke-linejoin="round"/>
<path d="M58.4658 25.4812H69.6363" stroke="#27567C" stroke-width="1.2059" stroke-miterlimit="10" stroke-linecap="round" stroke-linejoin="round"/>
<path d="M58.4658 34.0417H69.6363" stroke="#27567C" stroke-width="1.2059" stroke-miterlimit="10" stroke-linecap="round" stroke-linejoin="round"/>
<path d="M58.4658 42.6023H69.6363" stroke="#27567C" stroke-width="1.2059" stroke-miterlimit="10" stroke-linecap="round" stroke-linejoin="round"/>
<path d="M58.4658 51.1628H69.6363" stroke="#27567C" stroke-width="1.2059" stroke-miterlimit="10" stroke-linecap="round" stroke-linejoin="round"/>
<path d="M58.4658 59.741H69.6363" stroke="#27567C" stroke-width="1.2059" stroke-miterlimit="10" stroke-linecap="round" stroke-linejoin="round"/>
<path d="M58.4658 68.3015H69.6363" stroke="#27567C" stroke-width="1.2059" stroke-miterlimit="10" stroke-linecap="round" stroke-linejoin="round"/>
<path d="M58.4658 76.8621H69.6363" stroke="#27567C" stroke-width="1.2059" stroke-miterlimit="10" stroke-linecap="round" stroke-linejoin="round"/>
<path d="M120.426 88.311H70.1936C66.8007 88.311 64.0342 85.5618 64.0342 82.1515V11.6311C64.0342 8.23821 66.7833 5.47168 70.1936 5.47168H120.426C123.819 5.47168 126.586 8.22081 126.586 11.6311V82.1515C126.586 85.5444 123.836 88.311 120.426 88.311Z" stroke="#27567C" stroke-width="1.2059" stroke-miterlimit="10" stroke-linecap="round" stroke-linejoin="round"/>
<path d="M57.892 88.311H7.65944C4.26653 88.311 1.5 85.5618 1.5 82.1515V11.6311C1.5 8.23821 4.24913 5.47168 7.65944 5.47168H57.892C61.2849 5.47168 64.0514 8.22081 64.0514 11.6311V82.1515C64.0514 85.5444 61.2849 88.311 57.892 88.311Z" stroke="#27567C" stroke-width="1.2059" stroke-miterlimit="10" stroke-linecap="round" stroke-linejoin="round"/>
<path d="M81.7988 17.634H110.926" stroke="#27567C" stroke-width="1.2059" stroke-miterlimit="10" stroke-linecap="round" stroke-linejoin="round"/>
<path d="M81.7988 25.4812H110.926" stroke="#27567C" stroke-width="1.2059" stroke-miterlimit="10" stroke-linecap="round" stroke-linejoin="round"/>
<path d="M81.7988 33.3457H110.926" stroke="#27567C" stroke-width="1.2059" stroke-miterlimit="10" stroke-linecap="round" stroke-linejoin="round"/>
<path d="M81.7988 41.1929H110.926" stroke="#27567C" stroke-width="1.2059" stroke-miterlimit="10" stroke-linecap="round" stroke-linejoin="round"/>
<path d="M81.7988 49.0576H110.926" stroke="#27567C" stroke-width="1.2059" stroke-miterlimit="10" stroke-linecap="round" stroke-linejoin="round"/>
<path d="M32.6495 48.3835L42.733 30.9184C42.9979 30.4416 42.6624 29.8589 42.1149 29.8589H23.1665C22.619 29.8589 22.2835 30.4416 22.5484 30.9184L32.6495 48.3835Z" fill="#7CC7B9"/>
<path d="M32.6494 46.6177V59.1028" stroke="#7CC7B9" stroke-width="1.2059" stroke-miterlimit="10" stroke-linecap="round" stroke-linejoin="round"/>
<path d="M25.6914 59.1028H39.5893" stroke="#7CC7B9" stroke-width="1.2059" stroke-miterlimit="10" stroke-linecap="round" stroke-linejoin="round"/>
<path d="M39.8191 29.541C39.8191 31.5189 38.2121 33.1259 36.2343 33.1259C34.2564 33.1259 32.6494 31.5189 32.6494 29.541C32.6494 27.5632 34.2564 25.9562 36.2343 25.9562C38.2121 25.9385 39.8191 27.5455 39.8191 29.541Z" fill="#FA6880"/>
<path d="M59.2683 103.376L51.0557 95.163L86.0681 60.1338L90.1744 64.2569L94.2807 68.3631L59.2683 103.376Z" fill="#FA6880"/>
<path d="M53.5359 106.393L48.0217 100.878C47.2675 100.124 47.2675 98.9174 48.0217 98.1632L54.7091 91.4758L58.8154 95.5821L62.9217 99.6884L56.2343 106.376C55.4969 107.147 54.2901 107.147 53.5359 106.393Z" fill="#FDC47B"/>
<path d="M58.7982 105.035L49.3789 95.6322L54.1221 90.9058L58.815 95.5987L63.5247 100.308L58.7982 105.035Z" fill="#27567C"/>
<path d="M97.4314 58.089C97.6325 57.4186 97.0124 56.7817 96.342 56.9996L93.6436 57.8208L96.6101 60.7874L97.4314 58.089Z" fill="#FA6880"/>
<path d="M93.6263 57.8208L86.0674 60.1337L94.28 68.3631L96.6097 60.7874L93.6263 57.8208Z" fill="#CCCCCC"/>
<path d="M53.1836 94.6936L55.9155 97.4423" stroke="white" stroke-width="1.2059" stroke-miterlimit="10" stroke-linecap="round" stroke-linejoin="round"/>
<path d="M89.0682 68.3296L68.168 89.2298" stroke="#27567C" stroke-width="1.2059" stroke-miterlimit="10" stroke-linecap="round" stroke-linejoin="round"/>
</svg>
