<svg width="44" height="44" viewBox="0 0 44 44" fill="none" xmlns="http://www.w3.org/2000/svg">
<path d="M11.0013 12.8333H20.168C20.6542 12.8333 21.1205 13.0265 21.4643 13.3703C21.8081 13.7141 22.0013 14.1804 22.0013 14.6667C22.0013 15.1529 21.8081 15.6192 21.4643 15.963C21.1205 16.3068 20.6542 16.5 20.168 16.5H11.0013C10.5151 16.5 10.0488 16.3068 9.70494 15.963C9.36112 15.6192 9.16797 15.1529 9.16797 14.6667C9.16797 14.1804 9.36112 13.7141 9.70494 13.3703C10.0488 13.0265 10.5151 12.8333 11.0013 12.8333ZM23.8346 27.5H33.0013C33.4875 27.5 33.9538 27.6932 34.2977 28.037C34.6415 28.3808 34.8346 28.8471 34.8346 29.3333C34.8346 29.8196 34.6415 30.2859 34.2977 30.6297C33.9538 30.9735 33.4875 31.1667 33.0013 31.1667H23.8346C23.3484 31.1667 22.8821 30.9735 22.5383 30.6297C22.1945 30.2859 22.0013 29.8196 22.0013 29.3333C22.0013 28.8471 22.1945 28.3808 22.5383 28.037C22.8821 27.6932 23.3484 27.5 23.8346 27.5ZM11.0013 20.1667H33.0013C33.4875 20.1667 33.9538 20.3598 34.2977 20.7036C34.6415 21.0475 34.8346 21.5138 34.8346 22C34.8346 22.4862 34.6415 22.9525 34.2977 23.2964C33.9538 23.6402 33.4875 23.8333 33.0013 23.8333H11.0013C10.5151 23.8333 10.0488 23.6402 9.70494 23.2964C9.36112 22.9525 9.16797 22.4862 9.16797 22C9.16797 21.5138 9.36112 21.0475 9.70494 20.7036C10.0488 20.3598 10.5151 20.1667 11.0013 20.1667Z" fill="black"/>
</svg>
