<svg width="45" height="45" viewBox="0 0 45 45" fill="none" xmlns="http://www.w3.org/2000/svg">
<path d="M24.9639 22.3125L31.592 15.6825C31.7711 15.5095 31.9139 15.3026 32.0122 15.0739C32.1105 14.8451 32.1622 14.5991 32.1644 14.3501C32.1665 14.1012 32.1191 13.8543 32.0248 13.6238C31.9305 13.3934 31.7913 13.1841 31.6153 13.008C31.4392 12.832 31.2299 12.6927 30.9994 12.5985C30.769 12.5042 30.5221 12.4567 30.2731 12.4589C30.0242 12.4611 29.7781 12.5128 29.5494 12.6111C29.3206 12.7093 29.1137 12.8522 28.9408 13.0313L22.3108 19.6594L15.6826 13.0313C15.5097 12.8522 15.3028 12.7093 15.074 12.6111C14.8453 12.5128 14.5992 12.4611 14.3503 12.4589C14.1013 12.4567 13.8544 12.5042 13.624 12.5985C13.3936 12.6927 13.1842 12.832 13.0082 13.008C12.8321 13.1841 12.6929 13.3934 12.5986 13.6238C12.5043 13.8543 12.4569 14.1012 12.4591 14.3501C12.4612 14.5991 12.5129 14.8451 12.6112 15.0739C12.7095 15.3026 12.8523 15.5095 13.0314 15.6825L19.6595 22.3106L13.0314 28.9406C12.8523 29.1136 12.7095 29.3205 12.6112 29.5492C12.5129 29.778 12.4612 30.024 12.4591 30.273C12.4569 30.522 12.5043 30.7689 12.5986 30.9993C12.6929 31.2297 12.8321 31.4391 13.0082 31.6151C13.1842 31.7912 13.3936 31.9304 13.624 32.0247C13.8544 32.1189 14.1013 32.1664 14.3503 32.1642C14.5992 32.1621 14.8453 32.1103 15.074 32.0121C15.3028 31.9138 15.5097 31.771 15.6826 31.5919L22.3108 24.9637L28.9408 31.5919C29.1137 31.771 29.3206 31.9138 29.5494 32.0121C29.7781 32.1103 30.0242 32.1621 30.2731 32.1642C30.5221 32.1664 30.769 32.1189 30.9994 32.0247C31.2299 31.9304 31.4392 31.7912 31.6153 31.6151C31.7913 31.4391 31.9305 31.2297 32.0248 30.9993C32.1191 30.7689 32.1665 30.522 32.1644 30.273C32.1622 30.024 32.1105 29.778 32.0122 29.5492C31.9139 29.3205 31.7711 29.1136 31.592 28.9406L24.9639 22.3125Z" fill="black"/>
</svg>
