<svg width="52" height="52" viewBox="0 0 52 52" fill="none" xmlns="http://www.w3.org/2000/svg">
<path d="M4.46346 41.1441C8.01756 46.4737 13.3702 50.3016 19.5134 51.9068C20.7111 52.2197 20.702 50.0745 20.6905 47.3381C20.6894 47.0648 20.6882 46.7857 20.6882 46.5025V32.6085H21.2204C22.8978 32.6085 24.8548 31.4743 24.5753 27.7878V16.4458C24.5753 15.0283 22.3387 15.0283 22.3387 16.4458V26.0868C22.3387 27.1555 19.8566 27.2171 19.5699 26.2719V16.446C19.5699 15.0283 17.3334 15.0283 17.3334 16.446L17.3333 26.0868C17.3333 27.221 14.5376 27.221 14.5376 26.0868V16.4458C14.5376 15.0283 12.3011 15.0283 12.3011 16.4458V27.7878C12.0215 31.4743 13.9785 32.6085 15.6559 32.6085L15.656 44.3904C13.0352 42.8218 10.7973 40.6432 9.03844 38.0057C6.23937 33.8082 5.04993 28.7175 5.69412 23.6925C6.33833 18.6674 8.77173 14.0545 12.5361 10.7226C16.3004 7.39069 21.1359 5.56955 26.132 5.60222C31.1282 5.6349 35.9401 7.51911 39.6618 10.9C43.3834 14.2809 45.758 18.9252 46.3382 23.9582C46.9185 28.9914 45.6645 34.066 42.8122 38.2265C40.9936 40.8793 38.5647 43.0256 35.7849 44.5441V32.7382C38.0857 31.3563 39.6989 28.1367 39.6989 24.3855C39.6989 19.3742 36.8201 15.3118 33.2688 15.3118C29.7176 15.3118 26.8387 19.3742 26.8387 24.3855C26.8387 28.1367 28.4519 31.3563 30.7527 32.7382V48.771H30.7731C30.8365 50.8659 31.0963 52.1287 32.1614 51.9896C38.3246 50.4648 43.7254 46.7072 47.3469 41.4245C50.9685 36.1418 52.5608 29.6983 51.824 23.3076C51.0872 16.917 48.0722 11.02 43.3467 6.72723C38.6212 2.43442 32.5113 0.0420149 26.1676 0.000548191C19.8239 -0.0409185 13.6842 2.27139 8.90445 6.50203C4.12482 10.7327 1.03505 16.5897 0.217093 22.9702C-0.600865 29.3507 0.909395 35.8144 4.46346 41.1441Z" fill="#75A755"/>
</svg>
