<svg width="25" height="24" viewBox="0 0 25 24" fill="none" xmlns="http://www.w3.org/2000/svg">
<path fill-rule="evenodd" clip-rule="evenodd" d="M2 12C2 6.20101 6.70101 1.5 12.5 1.5C18.299 1.5 23 6.20101 23 12C23 17.799 18.299 22.5 12.5 22.5C6.70101 22.5 2 17.799 2 12ZM16.2127 10.7197C16.5055 10.4268 16.5055 9.95192 16.2127 9.65903C15.9198 9.36614 15.4449 9.36614 15.152 9.65903L11.4397 13.3713L9.84869 11.7804C9.5558 11.4875 9.08092 11.4875 8.78803 11.7804C8.49514 12.0732 8.49514 12.5481 8.78803 12.841L10.9093 14.9623C11.2022 15.2552 11.6771 15.2552 11.97 14.9623L16.2127 10.7197Z" fill="#75A755"/>
</svg>
