<svg width="25" height="24" viewBox="0 0 25 24" fill="none" xmlns="http://www.w3.org/2000/svg">
<path fill-rule="evenodd" clip-rule="evenodd" d="M2 12C2 6.20101 6.70101 1.5 12.5 1.5C18.299 1.5 23 6.20101 23 12C23 17.799 18.299 22.5 12.5 22.5C6.70101 22.5 2 17.799 2 12ZM10.379 8.81803C10.0861 8.52513 9.6112 8.52513 9.3183 8.81803C9.02541 9.11092 9.02541 9.5858 9.3183 9.87869L11.4396 12L9.31831 14.1213C9.02542 14.4142 9.02542 14.8891 9.31831 15.182C9.6112 15.4749 10.0861 15.4749 10.379 15.182L12.5003 13.0607L14.6216 15.182C14.9145 15.4749 15.3894 15.4749 15.6823 15.182C15.9752 14.8891 15.9752 14.4142 15.6823 14.1213L13.5609 12L15.6823 9.87869C15.9752 9.5858 15.9752 9.11092 15.6823 8.81803C15.3894 8.52513 14.9145 8.52513 14.6216 8.81803L12.5003 10.9394L10.379 8.81803Z" fill="#FF6954" fill-opacity="0.32"/>
</svg>
