<svg width="70" height="70" viewBox="0 0 70 70" fill="none" xmlns="http://www.w3.org/2000/svg">
<path d="M35.0002 58.8002C21.8402 58.8002 11.2002 48.1602 11.2002 35.0002C11.2002 21.8402 21.8402 11.2002 35.0002 11.2002C48.1602 11.2002 58.8002 21.8402 58.8002 35.0002C58.8002 48.1602 48.1602 58.8002 35.0002 58.8002ZM35.0002 14.0002C23.3802 14.0002 14.0002 23.3802 14.0002 35.0002C14.0002 46.6202 23.3802 56.0002 35.0002 56.0002C46.6202 56.0002 56.0002 46.6202 56.0002 35.0002C56.0002 23.3802 46.6202 14.0002 35.0002 14.0002Z" fill="#75A755"/>
<path d="M46.6199 37.3798L34.9999 25.7598L23.3799 37.3798L21.4199 35.4198L34.9999 21.8398L48.5799 35.4198L46.6199 37.3798Z" fill="#75A755"/>
<path d="M33.5996 23.7998H36.3996V47.5998H33.5996V23.7998Z" fill="#75A755"/>
</svg>
