<svg width="130" height="40" viewBox="0 0 130 40" fill="none" xmlns="http://www.w3.org/2000/svg">
<path d="M3.09301 28.292C5.55586 31.9568 9.26503 34.589 13.5221 35.6928C14.352 35.9079 14.3457 34.4328 14.3377 32.5512C14.337 32.3633 14.3361 32.1713 14.3361 31.9766V22.4226H14.705C15.8673 22.4226 17.2235 21.6427 17.0297 19.1078V11.3087C17.0297 10.3339 15.4799 10.3339 15.4799 11.3087V17.9381C15.4799 18.673 13.7599 18.7154 13.5612 18.0654V11.3088C13.5612 10.3339 12.0114 10.3339 12.0114 11.3088L12.0113 17.9381C12.0113 18.718 10.074 18.718 10.074 17.9381V11.3087C10.074 10.3339 8.52419 10.3339 8.52419 11.3087V19.1078C8.33046 21.6427 9.6866 22.4226 10.849 22.4226L10.849 30.5243C9.03287 29.4456 7.48211 27.9476 6.26329 26.1339C4.32364 23.2476 3.49941 19.7471 3.94581 16.2917C4.39223 12.8363 6.07848 9.66433 8.68701 7.37323C11.2955 5.08208 14.6464 3.8298 18.1085 3.85227C21.5706 3.87474 24.9051 5.17038 27.4841 7.49518C30.0631 9.81999 31.7085 13.0135 32.1106 16.4744C32.5127 19.9354 31.6437 23.4249 29.6673 26.2858C28.407 28.1099 26.7239 29.5857 24.7976 30.63V22.5118C26.392 21.5616 27.5098 19.3477 27.5098 16.7682C27.5098 13.3223 25.5149 10.5289 23.054 10.5289C20.5931 10.5289 18.5982 13.3223 18.5982 16.7682C18.5982 19.3477 19.7161 21.5616 21.3104 22.5118V33.5365H21.3246C21.3685 34.977 21.5486 35.8454 22.2866 35.7497C26.5575 34.7012 30.3 32.1173 32.8096 28.4848C35.3192 24.8523 36.4226 20.4215 35.9121 16.0271C35.4015 11.6327 33.3122 7.57773 30.0376 4.62585C26.763 1.67398 22.5291 0.0288908 18.1332 0.000376954C13.7372 -0.0281369 9.4826 1.56188 6.17045 4.471C2.85834 7.38013 0.717251 11.4076 0.150437 15.795C-0.416377 20.1825 0.630177 24.6271 3.09301 28.292Z" fill="#75A755"/>
<path d="M113.662 36C112.761 36 111.871 35.8606 110.991 35.5817C110.111 35.3028 109.393 34.9166 108.835 34.4231L110.669 30.851C111.055 31.1943 111.495 31.4625 111.989 31.6556C112.504 31.8486 113.008 31.9452 113.501 31.9452C114.209 31.9452 114.767 31.7735 115.175 31.4303C115.604 31.1085 115.99 30.5614 116.333 29.789L117.234 27.6651L117.62 27.118L123.831 12.1859H128.659L120.839 30.5614C120.281 31.9559 119.637 33.0501 118.908 33.8439C118.2 34.6377 117.406 35.1955 116.526 35.5173C115.668 35.8391 114.713 36 113.662 36ZM116.623 30.1752L108.899 12.1859H114.08L120.066 26.6675L116.623 30.1752Z" fill="#17181B"/>
<path d="M106.492 29.7569C104.454 29.7569 102.866 29.242 101.729 28.2122C100.592 27.1609 100.024 25.6055 100.024 23.5459V8.35638H105.044V23.4815C105.044 24.211 105.237 24.7795 105.623 25.1871C106.009 25.5733 106.535 25.7664 107.2 25.7664C107.994 25.7664 108.67 25.5519 109.227 25.1228L110.579 28.6627C110.064 29.0274 109.442 29.3063 108.712 29.4994C108.005 29.671 107.264 29.7569 106.492 29.7569ZM97.3525 16.4339V12.5721H109.356V16.4339H97.3525Z" fill="#17181B"/>
<path d="M89.7492 29.7569C88.2689 29.7569 86.8422 29.5852 85.4691 29.242C84.1175 28.8772 83.0448 28.4267 82.251 27.8903L83.9244 24.2861C84.7182 24.7795 85.6515 25.1871 86.7242 25.5089C87.8183 25.8093 88.891 25.9595 89.9423 25.9595C91.1008 25.9595 91.9161 25.82 92.388 25.5411C92.8815 25.2622 93.1282 24.876 93.1282 24.3826C93.1282 23.975 92.9351 23.6746 92.5489 23.4815C92.1842 23.267 91.6908 23.1061 91.0686 22.9988C90.4464 22.8915 89.7599 22.7843 89.009 22.677C88.2796 22.5697 87.5394 22.4303 86.7885 22.2586C86.0376 22.0656 85.3511 21.7866 84.7289 21.4219C84.1068 21.0572 83.6026 20.5638 83.2164 19.9416C82.8517 19.3194 82.6693 18.5149 82.6693 17.528C82.6693 16.4338 82.9804 15.4684 83.6026 14.6317C84.2462 13.795 85.1687 13.1406 86.3702 12.6686C87.5716 12.1752 89.009 11.9285 90.6824 11.9285C91.8624 11.9285 93.0638 12.0572 94.2867 12.3147C95.5096 12.5721 96.5287 12.9476 97.3439 13.441L95.6705 17.0131C94.8338 16.5197 93.9864 16.1871 93.1282 16.0155C92.2915 15.8224 91.4762 15.7259 90.6824 15.7259C89.5668 15.7259 88.7516 15.876 88.2367 16.1764C87.7218 16.4768 87.4643 16.8629 87.4643 17.3349C87.4643 17.764 87.6467 18.0858 88.0114 18.3004C88.3976 18.5149 88.9017 18.6865 89.5239 18.8153C90.1461 18.944 90.8219 19.062 91.5513 19.1692C92.3022 19.2551 93.0531 19.3945 93.804 19.5876C94.5549 19.7807 95.2307 20.0596 95.8314 20.4243C96.4536 20.7676 96.9578 21.2503 97.3439 21.8725C97.7301 22.4732 97.9232 23.267 97.9232 24.2539C97.9232 25.3266 97.6014 26.2813 96.9578 27.118C96.3141 27.9333 95.3809 28.5769 94.158 29.0489C92.9566 29.5209 91.487 29.7569 89.7492 29.7569Z" fill="#17181B"/>
<path d="M76.292 29.4994V26.1204L75.9702 25.3802V19.3302C75.9702 18.2574 75.6377 17.4207 74.9726 16.82C74.329 16.2193 73.3314 15.9189 71.9797 15.9189C71.0572 15.9189 70.1454 16.0691 69.2443 16.3695C68.3647 16.6484 67.6138 17.0346 66.9917 17.528L65.1895 14.0203C66.1335 13.3552 67.2706 12.8403 68.6007 12.4756C69.9309 12.1108 71.2825 11.9285 72.6556 11.9285C75.2944 11.9285 77.3433 12.5507 78.8022 13.795C80.261 15.0393 80.9905 16.9809 80.9905 19.6198V29.4994H76.292ZM71.0143 29.7569C69.6627 29.7569 68.5042 29.5316 67.5387 29.081C66.5733 28.6091 65.8331 27.9762 65.3182 27.1824C64.8033 26.3886 64.5459 25.4982 64.5459 24.5113C64.5459 23.4815 64.7926 22.5805 65.2861 21.8081C65.801 21.0358 66.6055 20.435 67.6997 20.006C68.7938 19.5554 70.2205 19.3302 71.9797 19.3302H76.5817V22.2586H72.5268C71.3468 22.2586 70.5316 22.4517 70.0811 22.8379C69.652 23.2241 69.4374 23.7068 69.4374 24.2861C69.4374 24.9297 69.6842 25.4446 70.1776 25.8307C70.6925 26.1955 71.3898 26.3778 72.2694 26.3778C73.1061 26.3778 73.857 26.1847 74.5221 25.7986C75.1871 25.3909 75.6699 24.801 75.9702 24.0286L76.7426 26.3456C76.3778 27.4613 75.7128 28.3087 74.7473 28.888C73.7819 29.4672 72.5376 29.7569 71.0143 29.7569Z" fill="#17181B"/>
<path d="M60.3758 29.7569C58.3376 29.7569 56.75 29.242 55.613 28.2122C54.4759 27.1609 53.9074 25.6055 53.9074 23.5459V8.35638H58.9276V23.4815C58.9276 24.211 59.1207 24.7795 59.5069 25.1871C59.8931 25.5733 60.4187 25.7664 61.0838 25.7664C61.8776 25.7664 62.5534 25.5519 63.1112 25.1228L64.4628 28.6627C63.9479 29.0274 63.3257 29.3063 62.5963 29.4994C61.8883 29.671 61.1481 29.7569 60.3758 29.7569ZM51.2363 16.4339V12.5721H63.2399V16.4339H51.2363Z" fill="#17181B"/>
<path d="M45.2257 29.4994V12.1859H50.246V29.4994H45.2257ZM47.7358 9.77235C46.8133 9.77235 46.0624 9.50417 45.4831 8.96782C44.9039 8.43146 44.6143 7.76639 44.6143 6.97258C44.6143 6.17878 44.9039 5.5137 45.4831 4.97735C46.0624 4.441 46.8133 4.17282 47.7358 4.17282C48.6584 4.17282 49.4093 4.43027 49.9885 4.94517C50.5678 5.43862 50.8574 6.08224 50.8574 6.87604C50.8574 7.71275 50.5678 8.41001 49.9885 8.96782C49.4307 9.50417 48.6798 9.77235 47.7358 9.77235Z" fill="#17181B"/>
</svg>
