<svg width="72" height="91" viewBox="0 0 72 91" fill="none" xmlns="http://www.w3.org/2000/svg">
<path d="M70.7137 69.3658V12.2378C70.7137 8.56467 67.7293 5.5979 64.0738 5.5979H13.886C10.2129 5.5979 7.24609 8.58233 7.24609 12.2378V23.7694C36.4193 24.5817 61.1247 43.3006 70.7137 69.3658Z" fill="#E6E6E6"/>
<path d="M64.0557 1.05957C65.592 1.05957 67.0577 1.37744 68.3999 1.94254" stroke="#27567C" stroke-width="1.2059" stroke-miterlimit="10" stroke-linecap="round" stroke-linejoin="round"/>
<path d="M38.9619 1.05957H51.5177" stroke="#27567C" stroke-width="1.2059" stroke-miterlimit="10" stroke-linecap="round" stroke-linejoin="round"/>
<path d="M1.55957 17.2178H12.8969" stroke="#27567C" stroke-width="1.2059" stroke-miterlimit="10" stroke-linecap="round" stroke-linejoin="round"/>
<path d="M1.55957 25.9062H12.8969" stroke="#27567C" stroke-width="1.2059" stroke-miterlimit="10" stroke-linecap="round" stroke-linejoin="round"/>
<path d="M1.55957 34.5947H12.8969" stroke="#27567C" stroke-width="1.2059" stroke-miterlimit="10" stroke-linecap="round" stroke-linejoin="round"/>
<path d="M1.55957 43.283H12.8969" stroke="#27567C" stroke-width="1.2059" stroke-miterlimit="10" stroke-linecap="round" stroke-linejoin="round"/>
<path d="M1.55957 51.9714H12.8969" stroke="#27567C" stroke-width="1.2059" stroke-miterlimit="10" stroke-linecap="round" stroke-linejoin="round"/>
<path d="M1.55957 60.6775H12.8969" stroke="#27567C" stroke-width="1.2059" stroke-miterlimit="10" stroke-linecap="round" stroke-linejoin="round"/>
<path d="M1.55957 69.366H12.8969" stroke="#27567C" stroke-width="1.2059" stroke-miterlimit="10" stroke-linecap="round" stroke-linejoin="round"/>
<path d="M1.55957 78.0542H12.8969" stroke="#27567C" stroke-width="1.2059" stroke-miterlimit="10" stroke-linecap="round" stroke-linejoin="round"/>
<path d="M64.4624 89.674H13.4799C10.0363 89.674 7.22852 86.8838 7.22852 83.4226V11.8493C7.22852 8.40573 10.0187 5.5979 13.4799 5.5979H64.4624C67.906 5.5979 70.7138 8.38808 70.7138 11.8493V83.4226C70.7138 86.8662 67.906 89.674 64.4624 89.674Z" stroke="#27567C" stroke-width="1.2059" stroke-miterlimit="10" stroke-linecap="round" stroke-linejoin="round"/>
<g clip-path="url(#clip0_157_25868)">
<path d="M40.6597 73.2199C34.7597 73.2199 29.9697 68.4299 29.9697 62.5299V47.0599C29.9697 44.4599 32.0797 42.3499 34.6797 42.3499H46.6397C49.2397 42.3499 51.3497 44.4599 51.3497 47.0599V62.5299C51.3497 68.4299 46.5597 73.2199 40.6597 73.2199Z" fill="#FDC47B"/>
<path d="M32.32 38.9199C31.02 38.9199 29.97 39.9699 29.97 41.2699L29.57 47.4999C29.06 47.4999 28.25 47.6699 28.25 48.4199V59.4999H32C32.77 59.4999 33.4 58.8699 33.4 58.0999V47.4899H49.94C51.22 47.4899 52.26 46.4499 52.26 45.1699V38.9199H32.32Z" fill="#27567C"/>
<path d="M44.0695 56.8699V56.6199V56.61V53.9C44.0695 53.65 43.8695 53.45 43.6195 53.45C43.3695 53.45 43.1695 53.65 43.1695 53.9V56.5999L43.1595 57.2599C43.1595 57.3799 43.2095 57.5 43.2895 57.59C43.3795 57.68 43.4995 57.72 43.6195 57.72H43.6895C44.2295 57.72 44.7195 57.9399 45.0795 58.2999C45.4395 58.6599 45.6595 59.14 45.6595 59.66V59.74C45.6195 60.75 44.7295 61.59 43.6995 61.59C43.6195 61.59 43.5395 61.59 43.4595 61.57C43.2095 61.54 42.9895 61.7099 42.9595 61.9599C42.9295 62.2099 43.0995 62.4299 43.3495 62.4599C43.4695 62.4699 43.5895 62.4799 43.6995 62.4799C45.2095 62.4799 46.4795 61.2899 46.5595 59.7799V59.66C46.5495 58.25 45.4695 57.0599 44.0695 56.8699Z" fill="#27567C"/>
<path d="M38.54 54.6799C38.54 54.0999 39.02 53.6199 39.6 53.6199C40.18 53.6199 40.66 54.0999 40.66 54.6799C40.66 55.2599 40.18 55.7399 39.6 55.7399C39.01 55.7399 38.54 55.2599 38.54 54.6799Z" fill="#27567C"/>
<path d="M46.6699 54.6799C46.6699 54.0999 47.1499 53.6199 47.7299 53.6199C48.3099 53.6199 48.7899 54.0999 48.7899 54.6799C48.7899 55.2599 48.3099 55.7399 47.7299 55.7399C47.1399 55.7399 46.6699 55.2599 46.6699 54.6799Z" fill="#27567C"/>
<path d="M29.11 62.9301C30.5294 62.9301 31.68 61.3944 31.68 59.5001C31.68 57.6057 30.5294 56.0701 29.11 56.0701C27.6907 56.0701 26.54 57.6057 26.54 59.5001C26.54 61.3944 27.6907 62.9301 29.11 62.9301Z" fill="#FDC47B"/>
<path d="M52.2995 30.5601H29.9395V48.6701H52.2995V30.5601Z" fill="white" stroke="#27567C" stroke-width="1.2059" stroke-miterlimit="10" stroke-linecap="round" stroke-linejoin="round"/>
<path d="M51.0294 24.9001C49.3994 24.9001 47.9694 25.6801 47.0294 26.8601C45.8994 24.7501 43.6794 23.3201 41.1294 23.3201C38.5694 23.3201 36.3594 24.7501 35.2294 26.8601C34.2894 25.6701 32.8594 24.9001 31.2294 24.9001C28.3994 24.9001 26.1094 27.1901 26.1094 30.0201C26.1094 32.8501 28.3994 35.1401 31.2294 35.1401C32.8594 35.1401 34.2894 34.3601 35.2294 33.1801C36.3594 35.2901 38.5794 36.7201 41.1294 36.7201C43.6894 36.7201 45.8994 35.2901 47.0294 33.1801C47.9694 34.3701 49.3994 35.1401 51.0294 35.1401C53.8594 35.1401 56.1494 32.8501 56.1494 30.0201C56.1494 27.1901 53.8494 24.9001 51.0294 24.9001Z" fill="white" stroke="#27567C" stroke-width="1.2059" stroke-miterlimit="10" stroke-linecap="round" stroke-linejoin="round"/>
<path d="M26.0996 36.9299V42.3499" stroke="#27567C" stroke-width="1.2059" stroke-miterlimit="10" stroke-linecap="round" stroke-linejoin="round"/>
<path d="M26.0996 45.73V47.08" stroke="#27567C" stroke-width="1.2059" stroke-miterlimit="10" stroke-linecap="round" stroke-linejoin="round"/>
<path d="M35.3193 22.31C35.3193 22.31 37.3593 20.1 40.2593 20.7" stroke="#27567C" stroke-width="1.2059" stroke-miterlimit="10" stroke-linecap="round" stroke-linejoin="round"/>
<path d="M46.44 64.8699C46.44 64.8699 44.92 67.4599 41.96 67.4899" stroke="#27567C" stroke-width="1.2059" stroke-miterlimit="10" stroke-linecap="round" stroke-linejoin="round"/>
</g>
<defs>
<clipPath id="clip0_157_25868">
<rect width="31.25" height="53.22" fill="white" transform="translate(25.5 20)"/>
</clipPath>
</defs>
</svg>
