<svg width="342" height="366" viewBox="0 0 342 366" fill="none" xmlns="http://www.w3.org/2000/svg">
<path d="M104.662 39.2708L21.1477 58.4516C13.7646 60.1473 7.60051 64.7059 4.01152 71.1245C0.422529 77.5431 -0.29738 85.2959 2.01016 92.6775L28.1119 176.175C30.4195 183.556 35.5654 189.962 42.4178 193.982C49.2701 198.003 57.2675 199.309 64.6507 197.613L148.165 178.432C155.548 176.737 161.712 172.178 165.301 165.76C168.89 159.341 169.61 151.588 167.303 144.206L141.201 60.7095C138.893 53.3279 133.747 46.9223 126.895 42.9017C120.043 38.8812 112.045 37.5751 104.662 39.2708ZM139.465 150.6L55.9501 169.781L29.8483 86.2839L113.363 67.1031L139.465 150.6ZM156.866 206.265L73.3513 225.446C65.9681 227.141 59.8041 231.7 56.2151 238.118C52.6261 244.537 51.9062 252.29 54.2137 259.671L80.3155 343.168C82.623 350.55 87.769 356.956 94.6213 360.976C101.474 364.997 109.471 366.303 116.854 364.607L200.369 345.426C207.752 343.731 213.916 339.172 217.505 332.753C221.094 326.335 221.814 318.582 219.506 311.2L193.404 227.703C191.097 220.322 185.951 213.916 179.099 209.896C172.246 205.875 164.249 204.569 156.866 206.265ZM191.668 317.594L108.154 336.775L82.0519 253.278L165.566 234.097L191.668 317.594ZM271.691 0.909129L188.177 20.09C180.793 21.7856 174.629 26.3442 171.04 32.7628C167.451 39.1814 166.732 46.9343 169.039 54.3159L195.141 137.813C197.448 145.194 202.594 151.6 209.447 155.621C216.299 159.641 224.296 160.947 231.68 159.252L315.194 140.071C322.577 138.375 328.741 133.816 332.33 127.398C335.919 120.979 336.639 113.226 334.332 105.845L308.23 22.3478C305.922 14.9663 300.776 8.5606 293.924 4.54007C287.072 0.519523 279.074 -0.786559 271.691 0.909129ZM306.493 112.238L222.979 131.419L196.877 47.9223L280.392 28.7415L306.493 112.238ZM234.293 263.058L216.892 207.394C215.739 203.703 216.098 199.826 217.893 196.617C219.687 193.408 222.77 191.129 226.461 190.281C230.153 189.433 234.151 190.086 237.578 192.096C241.004 194.106 243.577 197.309 244.73 201L262.132 256.665C263.285 260.356 262.925 264.232 261.131 267.441C259.336 270.651 256.254 272.93 252.563 273.778C248.871 274.626 244.873 273.972 241.446 271.962C238.02 269.952 235.447 266.749 234.293 263.058ZM364.784 203.258C365.937 206.949 365.577 210.825 363.783 214.034C361.988 217.244 358.906 219.523 355.215 220.371L313.458 229.961L335.209 299.542C336.363 303.233 336.003 307.109 334.208 310.319C332.414 313.528 329.332 315.807 325.64 316.655L269.964 329.442C266.272 330.29 262.274 329.637 258.848 327.627C255.421 325.617 252.848 322.414 251.695 318.723C250.541 315.032 250.901 311.156 252.695 307.946C254.49 304.737 257.572 302.458 261.263 301.61L303.021 292.02L272.569 194.606C271.415 190.916 271.775 187.039 273.569 183.83C275.364 180.621 278.446 178.341 282.137 177.493C285.829 176.646 289.828 177.299 293.254 179.309C296.68 181.319 299.253 184.522 300.407 188.213L304.757 202.129L346.514 192.539C350.206 191.691 354.205 192.344 357.631 194.354C361.057 196.364 363.63 199.567 364.784 203.258ZM382.185 258.923L390.885 286.755C392.039 290.446 391.679 294.322 389.885 297.531C388.09 300.741 385.008 303.02 381.317 303.868C377.625 304.716 373.626 304.063 370.2 302.052C366.774 300.042 364.201 296.839 363.047 293.149L354.347 265.316C353.193 261.625 353.553 257.749 355.347 254.54C357.142 251.33 360.224 249.051 363.915 248.203C367.607 247.355 371.606 248.008 375.032 250.019C378.458 252.029 381.031 255.232 382.185 258.923Z" fill="#75A755"/>
</svg>
